<svg width="100" height="100" viewBox="0 0 100 100" fill="none" xmlns="http://www.w3.org/2000/svg">
    <path d="M95.8984 14.1797C94.1406 10.1953 90.9375 7.10937 86.875 5.50781C82.8125 3.90625 78.3594 4.02344 74.375 5.78125C72.5 6.60156 70.8203 7.77344 69.375 9.21875C68.6328 9.96094 68.6328 11.2109 69.375 11.9531C70.1172 12.6953 71.3672 12.6953 72.1094 11.9531C73.2031 10.8594 74.4922 9.96094 75.9375 9.33594C78.9844 8.00781 82.3828 7.92969 85.5078 9.14062C88.6328 10.3516 91.0547 12.6953 92.4219 15.7422C95.1953 22.0703 92.3047 29.4531 86.0156 32.2266C84.5703 32.8516 83.0469 33.2031 81.4844 33.2812C80.4297 33.3203 79.6094 34.2188 79.6484 35.2734C79.6875 36.3281 80.5469 37.1484 81.5625 37.1484C81.6016 37.1484 81.6016 37.1484 81.6406 37.1484C83.6719 37.0703 85.6641 36.6016 87.5781 35.7813C95.7422 32.1094 99.5312 22.4219 95.8984 14.1797Z" fill="black"/>
    <path d="M55.7813 44.4141C57.6953 45.1562 59.7266 45.5469 61.7188 45.5469C63.9453 45.5469 66.1719 45.0781 68.2813 44.1406C72.2656 42.3828 75.3516 39.1797 76.9531 35.1172C78.5547 31.0547 78.4375 26.6016 76.6797 22.6172C74.9219 18.6328 71.7188 15.5469 67.6562 13.9453C63.5938 12.3437 59.1406 12.4609 55.1562 14.2187C51.1719 15.9766 48.0859 19.1797 46.4844 23.2422C44.8828 27.3047 45 31.7578 46.7578 35.7422C48.5156 39.7656 51.7188 42.8125 55.7813 44.4141ZM50.0781 24.6484C51.2891 21.5234 53.6328 19.1016 56.6797 17.7344C58.2813 17.0312 60 16.6797 61.6797 16.6797C63.2031 16.6797 64.7656 16.9531 66.2109 17.5391C69.3359 18.75 71.7578 21.0937 73.125 24.1406C74.4531 27.1875 74.5312 30.5859 73.3203 33.7109C72.1094 36.8359 69.7656 39.2578 66.7188 40.625C63.6719 41.9531 60.2734 42.0312 57.1484 40.8203C54.0234 39.6094 51.6016 37.2656 50.2344 34.2187C48.9453 31.1328 48.8672 27.7734 50.0781 24.6484Z" fill="black"/>
    <path d="M32.6953 33.3984C32.9297 33.3984 33.1641 33.3594 33.3594 33.2812C35.625 32.4219 37.9688 31.7969 40.3906 31.4453C41.4453 31.2891 42.1484 30.3125 41.9922 29.2578C41.8359 28.2031 40.8594 27.5 39.8047 27.6562C37.1484 28.0469 34.5313 28.75 31.9922 29.6875C31.0156 30.0781 30.5078 31.1719 30.8594 32.1484C31.1719 32.8906 31.9141 33.3984 32.6953 33.3984Z" fill="black"/>
    <path d="M82.6953 51.7578C81.9141 48.7891 80.5859 45.8984 78.7891 43.2031C78.2031 42.3047 76.9922 42.0703 76.1328 42.6562C75.2344 43.2422 75 44.4531 75.5859 45.3125C77.1484 47.6562 78.2812 50.1562 78.9844 52.7344C79.1797 53.4375 79.3359 54.1406 79.4531 54.8437C80.8984 62.8906 78.3203 71.3281 72.7734 76.9141C72.1094 77.6172 71.6016 78.4766 71.4062 79.3359L67.8125 91.7578H59.7656L58.8281 88.0859C58.5938 87.2266 57.8516 86.6406 56.9531 86.6406L36.3672 86.5625C35.5078 86.5625 34.7266 87.1484 34.4922 88.0078L33.5156 91.7578H25.5078L23.2031 83.6328C22.7344 82.0312 21.5234 80.5859 20.0391 79.9609C15.1562 77.7344 10.8203 75.1562 7.07031 72.3437C6.75781 72.1094 6.5625 71.7187 6.5625 71.2891L6.60156 56.0938L8.67188 56.0547C9.25781 56.0547 9.80469 55.7422 10.1953 55.2734L18.4375 44.3359C18.4766 44.2578 18.5547 44.1797 18.5937 44.1016C19.1016 43.2031 18.75 42.3438 18.3594 41.5234C18.2812 41.2891 18.1641 41.0547 18.0859 40.8203L17.9297 40.4687C17.6172 39.7266 17.2656 38.9844 16.9141 38.2812C16.2891 36.9531 15.5859 35.625 14.8828 34.3359C14.8047 34.1797 14.7266 34.0625 14.6484 33.9063C14.7656 33.9063 14.8828 33.9063 15.0391 33.9063C15.0781 33.9063 15.1172 33.9063 15.1953 33.9063C17.1484 33.9063 18.9453 34.1797 20.5859 34.7656C21.0547 34.9219 22.0312 35.3906 22.2656 35.5078C22.2656 35.5078 22.3047 35.5078 22.3047 35.5469C22.6562 35.7422 24.7266 36.9531 25.1953 37.3047C27.2656 38.8672 29.0234 40.9375 30.1953 43.3203C30.6641 44.2578 31.8359 44.6484 32.7734 44.1797C33.7109 43.7109 34.1016 42.5391 33.6328 41.6016C32.1875 38.7109 30.0781 36.1719 27.5 34.2187C26.8359 33.7109 24.8047 32.5391 24.2578 32.2266C23.75 31.875 23.0078 31.5234 21.8359 31.1328C19.8438 30.4297 17.6953 30.0781 15.3516 30.0781C14.8828 30.0781 14.4141 30.0781 14.0234 30.1172L13.2812 30.1562C13.1641 30.1562 13.1641 30.1563 13.0469 30.1953C12.9688 30.1953 12.8906 30.2344 12.8125 30.2344C11.7969 30.4688 10.9375 31.1719 10.5078 32.1875C10.1172 33.2031 10.5469 34.1797 10.7031 34.6094C10.8203 35 11.0156 35.3516 11.2891 35.8203C11.2891 35.8594 11.3672 35.9375 11.4062 35.9766L11.5234 36.1719C12.1875 37.4219 12.8516 38.6719 13.4766 39.9609C13.7891 40.6641 14.1406 41.3281 14.4141 41.9922L14.5703 42.3828C14.6484 42.5391 14.7266 42.7344 14.7656 42.8906L7.73437 52.2266L4.6875 52.2656C3.63281 52.2656 2.8125 53.125 2.8125 54.1797L2.73438 71.3281C2.73438 72.9688 3.47656 74.4922 4.76562 75.4687C8.71094 78.4766 13.3203 81.1719 18.4766 83.5547C18.9453 83.75 19.375 84.2578 19.4922 84.7656L22.2266 94.2578C22.4609 95.0781 23.2031 95.6641 24.0625 95.6641H35.0391C35.8984 95.6641 36.6797 95.0781 36.9141 94.2187L37.8906 90.4687L55.4687 90.5469L56.4062 94.2187C56.6406 95.0781 57.3828 95.6641 58.2812 95.6641H69.2969C70.1562 95.6641 70.8984 95.0781 71.1328 94.2578L75.1562 80.3516C75.2344 80.1172 75.3516 79.8437 75.5469 79.6484C81.9531 73.2422 84.9219 63.4766 83.2812 54.2188C83.125 53.3984 82.9297 52.5781 82.6953 51.7578Z" fill="black"/>
    <path d="M25.0391 53.3203C25.0391 55 23.6328 56.4062 21.9531 56.4062C20.2734 56.4062 18.8672 55 18.8672 53.3203C18.8672 51.6406 20.2734 50.2344 21.9531 50.2344C23.6328 50.2344 25.0391 51.6797 25.0391 53.3203Z" fill="black"/>
</svg>
